HIERARCHY
ROOT hip
{
  OFFSET 0 0 0
  CHANNELS 6 Xposition Yposition Zposition Zrotation Yrotation Xrotation
  JOINT abdomen
  {
    OFFSET 0 20.6881 -0.73152
    CHANNELS 3 Zrotation Xrotation Yrotation
    JOINT chest
    {
      OFFSET 0 11.7043 -0.48768
      CHANNELS 3 Zrotation Xrotation Yrotation
      JOINT neck
      {
        OFFSET 0 22.1894 -2.19456
        CHANNELS 3 Zrotation Xrotation Yrotation
        JOINT head
        {
          OFFSET -0.24384 7.07133 1.2192
          CHANNELS 3 Zrotation Xrotation Yrotation
          JOINT leftEye
          {
            OFFSET 4.14528 8.04674 8.04672
            CHANNELS 3 Zrotation Xrotation Yrotation
            End Site
            {
              OFFSET 1 0 0
            }
          }
          JOINT rightEye
          {
            OFFSET -3.6576 8.04674 8.04672
            CHANNELS 3 Zrotation Xrotation Yrotation
            End Site
            {
              OFFSET 1 0 0
            }
          }
        }
      }
      JOINT rCollar
      {
        OFFSET -2.68224 19.2634 -4.8768
        CHANNELS 3 Zrotation Xrotation Yrotation
        JOINT rShldr
        {
          OFFSET -8.77824 -1.95073 1.46304
          CHANNELS 3 Zrotation Xrotation Yrotation
          JOINT rForeArm
          {
            OFFSET -28.1742 -1.7115 0.48768
            CHANNELS 3 Zrotation Xrotation Yrotation
            JOINT rHand
            {
              OFFSET -22.5879 0.773209 7.07136
              CHANNELS 3 Zrotation Xrotation Yrotation
              JOINT rThumb1
              {
                OFFSET -1.2192 -0.487915 3.41376
                CHANNELS 3 Zrotation Xrotation Yrotation
                JOINT rThumb2
                {
                  OFFSET -3.37035 -0.52449 3.41376
                  CHANNELS 3 Zrotation Xrotation Yrotation
                  End Site
                  {
                    OFFSET -1.78271 -1.18214 1.43049
                  }
                }
              }
              JOINT rIndex1
              {
                OFFSET -7.75947 0.938293 5.60832
                CHANNELS 3 Zrotation Xrotation Yrotation
                JOINT rIndex2
                {
                  OFFSET -2.54057 -0.884171 1.56538
                  CHANNELS 3 Zrotation Xrotation Yrotation
                  End Site
                  {
                    OFFSET -1.62519 -0.234802 1.16502
                  }
                }
              }
              JOINT rMid1
              {
                OFFSET -8.24714 1.18213 3.41376
                CHANNELS 3 Zrotation Xrotation Yrotation
                JOINT rMid2
                {
                  OFFSET -3.10165 -0.590103 1.0647
                  CHANNELS 3 Zrotation Xrotation Yrotation
                  End Site
                  {
                    OFFSET -2.48547 -0.328903 0.83742
                  }
                }
              }
              JOINT rRing1
              {
                OFFSET -8.82822 0.546677 1.51678
                CHANNELS 3 Zrotation Xrotation Yrotation
                JOINT rRing2
                {
                  OFFSET -2.60934 -0.819778 -0.0198488
                  CHANNELS 3 Zrotation Xrotation Yrotation
                  End Site
                  {
                    OFFSET -2.33842 -0.294052 0.168128
                  }
                }
              }
              JOINT rPinky1
              {
                OFFSET -8.27202 -0.0477905 -0.4584
                CHANNELS 3 Zrotation Xrotation Yrotation
                JOINT rPinky2
                {
                  OFFSET -1.82734 -0.647385 -0.700984
                  CHANNELS 3 Zrotation Xrotation Yrotation
                  End Site
                  {
                    OFFSET -1.69225 -0.51767 -0.607171
                  }
                }
              }
            }
          }
        }
      }
      JOINT lCollar
      {
        OFFSET 2.68224 19.2634 -4.8768
        CHANNELS 3 Zrotation Xrotation Yrotation
        JOINT lShldr
        {
          OFFSET 8.77824 -1.95073 1.46304
          CHANNELS 3 Zrotation Xrotation Yrotation
          JOINT lForeArm
          {
            OFFSET 28.1742 -1.7115 0.48768
            CHANNELS 3 Zrotation Xrotation Yrotation
            JOINT lHand
            {
              OFFSET 22.5879 0.773209 7.07136
              CHANNELS 3 Zrotation Xrotation Yrotation
              JOINT lThumb1
              {
                OFFSET 1.2192 -0.487915 3.41376
                CHANNELS 3 Zrotation Xrotation Yrotation
                JOINT lThumb2
                {
                  OFFSET 3.37035 -0.52449 3.41376
                  CHANNELS 3 Zrotation Xrotation Yrotation
                  End Site
                  {
                    OFFSET 1.78271 -1.18214 1.43049
                  }
                }
              }
              JOINT lIndex1
              {
                OFFSET 7.75947 0.938293 5.60832
                CHANNELS 3 Zrotation Xrotation Yrotation
                JOINT lIndex2
                {
                  OFFSET 2.54057 -0.884171 1.56538
                  CHANNELS 3 Zrotation Xrotation Yrotation
                  End Site
                  {
                    OFFSET 1.62519 -0.234802 1.16502
                  }
                }
              }
              JOINT lMid1
              {
                OFFSET 8.24714 1.18213 3.41376
                CHANNELS 3 Zrotation Xrotation Yrotation
                JOINT lMid2
                {
                  OFFSET 3.10165 -0.590103 1.0647
                  CHANNELS 3 Zrotation Xrotation Yrotation
                  End Site
                  {
                    OFFSET 2.48547 -0.328903 0.83742
                  }
                }
              }
              JOINT lRing1
              {
                OFFSET 8.82822 0.546677 1.51678
                CHANNELS 3 Zrotation Xrotation Yrotation
                JOINT lRing2
                {
                  OFFSET 2.60934 -0.819778 -0.0198488
                  CHANNELS 3 Zrotation Xrotation Yrotation
                  End Site
                  {
                    OFFSET 2.33842 -0.294052 0.168128
                  }
                }
              }
              JOINT lPinky1
              {
                OFFSET 8.27202 -0.0477905 -0.4584
                CHANNELS 3 Zrotation Xrotation Yrotation
                JOINT lPinky2
                {
                  OFFSET 1.82734 -0.647385 -0.700984
                  CHANNELS 3 Zrotation Xrotation Yrotation
                  End Site
                  {
                    OFFSET 1.69225 -0.51767 -0.607171
                  }
                }
              }
            }
          }
        }
      }
    }
  }
  JOINT rButtock
  {
    OFFSET -8.77824 4.35084 1.2192
    CHANNELS 3 Zrotation Xrotation Yrotation
    JOINT rThigh
    {
      OFFSET 0 -1.70687 -2.19456
      CHANNELS 3 Zrotation Xrotation Yrotation
      JOINT rShin
      {
        OFFSET 0 -36.8199 0.73152
        CHANNELS 3 Zrotation Xrotation Yrotation
        JOINT rFoot
        {
          OFFSET 0.73152 -45.1104 -5.12064
          CHANNELS 3 Zrotation Xrotation Yrotation
          End Site
          {
            OFFSET -1.1221 -3.69964 12.103
          }
        }
      }
    }
  }
  JOINT lButtock
  {
    OFFSET 8.77824 4.35084 1.2192
    CHANNELS 3 Zrotation Xrotation Yrotation
    JOINT lThigh
    {
      OFFSET 0 -1.70687 -2.19456
      CHANNELS 3 Zrotation Xrotation Yrotation
      JOINT lShin
      {
        OFFSET 0 -36.8199 0.73152
        CHANNELS 3 Zrotation Xrotation Yrotation
        JOINT lFoot
        {
          OFFSET -0.73152 -45.1104 -5.12064
          CHANNELS 3 Zrotation Xrotation Yrotation
          End Site
          {
            OFFSET 1.1221 -3.69964 12.103
          }
        }
      }
    }
  }
}
MOTION
Frames:	4
Frame Time:	0.00833333
12.6527 84.9173 -157.623 0.0 0.0 0.0 -0.140626 -0.000295011 -0.00400527 -0.038767 -0.000394543 -0.00671565 1.69891e-16 0.0 5.74612e-17 5.24916e-16 3.18055e-15 1.70831e-16 -0.0 0.0 0.0 -0.0 0.0 0.0 1.97466e-16 1.94126e-19 2.48481e-16 3.55211e-15 -1.05604e-16 1.39149e-15 3.46879e-14 -5.96354e-15 3.18055e-15 3.62111e-13 2.97432e-14 1.17681e-13 8.58479e-13 5.35353e-14 2.79889e-13 1.48333e-12 8.90555e-14 4.8742e-13 8.64316e-13 5.40694e-14 2.70347e-13 7.73091 5.47488 0.417314 8.57607e-13 5.29761e-14 2.8943e-13 2.90554 0.965183 0.102902 8.66496e-13 5.35725e-14 2.80684e-13 10.2786 0.731801 0.0259123 8.56563e-13 5.4467e-14 2.92611e-13 2.22167 -0.733487 -0.20892 1.32248e-18 5.82377e-19 -1.49089e-16 4.21447e-16 -2.98177e-16 -1.98785e-16 2.71341e-14 1.35174e-14 6.36111e-15 3.66143e-13 2.26118e-15 1.36764e-13 8.55806e-13 3.56322e-14 2.83069e-13 1.48731e-12 6.36111e-14 4.84239e-13 8.50003e-13 3.53837e-14 2.92611e-13 -7.73091 5.47488 -0.417314 8.57259e-13 3.56818e-14 2.8625e-13 -2.90554 0.965183 -0.102902 8.51494e-13 3.54831e-14 2.82274e-13 -10.2786 0.731801 -0.0259123 8.61135e-13 3.69739e-14 2.70347e-13 -2.22167 -0.733487 0.20892 -2.03217e-16 0.0 -3.88251e-19 0.41546 -2.89234 -0.0363697 -0.00657585 -0.313962 -0.0578459 -0.521693 3.20536 0.12542 2.03217e-16 0.0 3.88251e-19 -0.629345 -3.43714 0.0497309 0.00497783 0.672916 0.04323 0.523136 2.76331 -0.11651
12.6519 82.8911 -158.957 1.1268 2.6392 0.4846 -1.75121 2.62167 -0.0945093 1.52435 -0.534758 -0.112503 1.69006 -0.728315 -1.23171 -1.90487 1.39825 -2.88775 -0.0 0.0 0.0 -0.0 0.0 0.0 2.45665e-14 -1.41391e-14 -1.44876e-14 20.8157 3.55888 -1.97053 -5.01866 -2.46571 7.627 0.00983004 -2.19954 -0.308303 -2.58768e-10 -2.29213e-10 1.08483e-10 -4.46661e-10 -3.96823e-10 1.86199e-10 -2.58759e-10 -2.29214e-10 1.08475e-10 7.73091 5.47488 0.417314 -2.5877e-10 -2.29214e-10 1.08491e-10 2.90554 0.965183 0.102902 -2.58761e-10 -2.29213e-10 1.08484e-10 10.2786 0.731801 0.0259123 -2.58771e-10 -2.29212e-10 1.08495e-10 2.22167 -0.733487 -0.20892 2.44541e-14 -1.4137e-14 -1.48751e-14 -20.4417 7.54223 0.0535373 4.72542 -2.25831 -7.256 -0.0108363 -2.30972 0.323658 -5.04277e-10 -4.95577e-10 -3.47125e-10 -8.70684e-10 -8.55751e-10 -6.03248e-10 -5.04282e-10 -4.95576e-10 -3.47116e-10 -7.73091 5.47488 -0.417314 -5.04276e-10 -4.95576e-10 -3.47121e-10 -2.90554 0.965183 -0.102902 -5.04282e-10 -4.95576e-10 -3.47125e-10 -10.2786 0.731801 -0.0259123 -5.04272e-10 -4.95574e-10 -3.47134e-10 -2.22167 -0.733487 0.20892 -2.03217e-16 0.0 -3.88251e-19 -3.59208 -8.77774 -1.15951 -0.0789852 20.6691 0.21212 -0.495426 8.64743 -0.854918 2.03217e-16 0.0 3.88251e-19 -2.97989 -5.85494 0.818581 0.00882189 8.04303 0.0048358 0.658193 -0.694329 2.73679
12.6526 82.8864 -158.959 1.1285 2.6603 0.4867 -3.44501 5.39338 -0.17978 3.1668 -1.09876 -0.22137 3.43829 -1.49168 -2.54999 -3.75174 2.83892 -5.97707 -0.0 0.0 0.0 -0.0 0.0 0.0 5.14594e-14 -3.0018e-14 -3.12371e-14 43.1004 7.294 -4.08132 -9.61964 -4.92883 15.7388 -0.00558885 -4.52421 -0.635688 -5.54971e-10 -4.84804e-10 2.28451e-10 -9.57953e-10 -8.39313e-10 3.9206e-10 -5.54958e-10 -4.84806e-10 2.28445e-10 7.73091 5.47488 0.417314 -5.54973e-10 -4.84804e-10 2.28457e-10 2.90554 0.965183 0.102902 -5.54964e-10 -4.84803e-10 2.28453e-10 10.2786 0.731801 0.0259123 -5.54975e-10 -4.84803e-10 2.28463e-10 2.22167 -0.733487 -0.20892 5.14399e-14 -3.00138e-14 -3.16161e-14 -42.0548 15.532 0.108631 9.10362 -4.52447 -14.9616 0.00618391 -4.7555 0.668171 -1.07869e-09 -1.05141e-09 -7.40359e-10 -1.86249e-09 -1.81551e-09 -1.28665e-09 -1.0787e-09 -1.05141e-09 -7.40349e-10 -7.73091 5.47488 -0.417314 -1.07869e-09 -1.05141e-09 -7.40353e-10 -2.90554 0.965183 -0.102902 -1.0787e-09 -1.05141e-09 -7.40358e-10 -10.2786 0.731801 -0.0259123 -1.07869e-09 -1.0514e-09 -7.40364e-10 -2.22167 -0.733487 0.20892 -2.03217e-16 0.0 -3.88251e-19 -8.08555 -14.9888 -2.40007 -0.437283 42.849 0.640282 -0.259206 14.3938 -1.93097 2.03217e-16 0.0 3.88251e-19 -5.39346 -8.40895 1.64045 0.0239092 15.8348 -0.03725 1.17577 -4.3281 5.77029
12.6547 82.8871 -158.957 1.1234 2.6871 0.4827 -4.94732 7.86551 -0.277835 4.64465 -1.60346 -0.32419 4.97626 -2.18091 -3.69751 -5.29262 4.1521 -8.68364 -0.0 0.0 0.0 -0.0 0.0 0.0 7.33047e-14 -4.24178e-14 -4.39598e-14 63.191 10.6257 -6.00351 -13.133 -6.87397 23.0347 -0.0419229 -6.59786 -0.93039 -7.78021e-10 -6.87747e-10 3.24889e-10 -1.34295e-09 -1.19065e-09 5.57621e-10 -7.78006e-10 -6.8775e-10 3.24885e-10 7.73091 5.47488 0.417314 -7.78024e-10 -6.87747e-10 3.24893e-10 2.90554 0.965183 0.102902 -7.78016e-10 -6.87746e-10 3.24891e-10 10.2786 0.731801 0.0259123 -7.78027e-10 -6.87746e-10 3.24901e-10 2.22167 -0.733487 -0.20892 7.33597e-14 -4.24123e-14 -4.4327e-14 -61.3705 22.6266 0.172499 12.4974 -6.34124 -21.8918 0.0462614 -6.92827 0.977321 -1.51454e-09 -1.4868e-09 -1.04194e-09 -2.61503e-09 -2.56738e-09 -1.81071e-09 -1.51455e-09 -1.4868e-09 -1.04193e-09 -7.73091 5.47488 -0.417314 -1.51454e-09 -1.4868e-09 -1.04194e-09 -2.90554 0.965183 -0.102902 -1.51455e-09 -1.4868e-09 -1.04194e-09 -10.2786 0.731801 -0.0259123 -1.51454e-09 -1.4868e-09 -1.04194e-09 -2.22167 -0.733487 0.20892 -2.03217e-16 0.0 -3.88251e-19 -12.3408 -20.5168 -3.59334 -1.37344 62.6271 1.54674 0.145419 19.5104 -2.95591 2.03217e-16 0.0 3.88251e-19 -7.48317 -10.6833 2.38501 0.0478032 22.7832 -0.0781901 1.96402 -7.52904 8.51649
